@startuml
namespace github.com\\hyperledger\\fabric\\core\\ledger\\kvledger\\example {
 class App {
  name string
  ledger ledger.PeerLedger
}
}
namespace github.com\\hyperledger\\fabric\\core\\ledger\\kvledger\\example {
 class Committer {
  ledger ledger.PeerLedger
}
}
namespace github.com\\hyperledger\\fabric\\core\\ledger\\kvledger\\example {
 class Consenter {
  blockNum uint64
  previousHash []byte
}
}
namespace github.com\\hyperledger\\fabric\\core\\ledger\\kvledger\\example {
 class MarbleApp {
  name string
  ledger ledger.PeerLedger
}
}
namespace github.com\\hyperledger\\fabric\\core\\ledger\\kvledger\\example {
 class Marble {
  Name string
  Color string
  Size int
  User string
  Rev string
  Txid string
}
}
namespace github.com\\hyperledger\\fabric\\core\\ledger\\kvledger\\history\\historydb\\historyleveldb {
 class HistoryDBProvider {
  dbProvider *leveldbhelper.Provider
}
}
namespace github.com\\hyperledger\\fabric\\core\\ledger\\kvledger\\history\\historydb\\historyleveldb {
 class historyDB {
  db *leveldbhelper.DBHandle
  dbName string
}
}
namespace github.com\\hyperledger\\fabric\\core\\ledger\\kvledger\\history\\historydb\\historyleveldb {
 class LevelHistoryDBQueryExecutor {
  historyDB *historyDB
  blockStore blkstorage.BlockStore
}
}
namespace github.com\\hyperledger\\fabric\\core\\ledger\\kvledger\\history\\historydb\\historyleveldb {
 class historyScanner {
  compositePartialKey []byte
  namespace string
  key string
  dbItr iterator.Iterator
  blockStore blkstorage.BlockStore
}
}
namespace github.com\\hyperledger\\fabric\\core\\ledger\\kvledger {
 class kvLedger {
  ledgerID string
  blockStore blkstorage.BlockStore
  txtmgmt txmgr.TxMgr
  historyDB historydb.HistoryDB
}
}
namespace github.com\\hyperledger\\fabric\\core\\ledger\\kvledger {
 class Provider {
  idStore *idStore
  blockStoreProvider blkstorage.BlockStoreProvider
  vdbProvider statedb.VersionedDBProvider
  historydbProvider historydb.HistoryDBProvider
}
}
namespace github.com\\hyperledger\\fabric\\core\\ledger\\kvledger {
 class idStore {
  db *leveldbhelper.DB
}
}
namespace github.com\\hyperledger\\fabric\\core\\ledger\\kvledger {
 class recoverer {
  firstBlockNum uint64
  recoverable recoverable
}
}
namespace github.com\\hyperledger\\fabric\\core\\ledger\\kvledger\\txmgmt\\rwsetutil {
 class RangeQueryResultsHelper {
  pendingResults []*kvrwset.KVRead
  mt *merkleTree
  maxDegree uint32
  hashingEnabled bool
}
}
namespace github.com\\hyperledger\\fabric\\core\\ledger\\kvledger\\txmgmt\\rwsetutil {
 class merkleTree {
  tree map[MerkleTreeLevel][]Hash
  maxLevel MerkleTreeLevel
  maxDegree uint32
}
}
namespace github.com\\hyperledger\\fabric\\core\\ledger\\kvledger\\txmgmt\\rwsetutil {
 class nsRWs {
  readMap map[string]*kvrwset.KVRead
  writeMap map[string]*kvrwset.KVWrite
  rangeQueriesMap map[rangeQueryKey]*kvrwset.RangeQueryInfo
  rangeQueriesKeys []rangeQueryKey
}
}
namespace github.com\\hyperledger\\fabric\\core\\ledger\\kvledger\\txmgmt\\rwsetutil {
 class rangeQueryKey {
  startKey string
  endKey string
  itrExhausted bool
}
}
namespace github.com\\hyperledger\\fabric\\core\\ledger\\kvledger\\txmgmt\\rwsetutil {
 class RWSetBuilder {
  rwMap map[string]*nsRWs
}
}
namespace github.com\\hyperledger\\fabric\\core\\ledger\\kvledger\\txmgmt\\rwsetutil {
 class TxRwSet {
  NsRwSets []*NsRwSet
}
}
namespace github.com\\hyperledger\\fabric\\core\\ledger\\kvledger\\txmgmt\\rwsetutil {
 class NsRwSet {
  NameSpace string
  KvRwSet *kvrwset.KVRWSet
}
}
namespace github.com\\hyperledger\\fabric\\core\\ledger\\kvledger\\txmgmt\\statedb\\statecouchdb {
 class VersionedDBProvider {
  couchInstance *couchdb.CouchInstance
  databases map[string]*VersionedDB
  mux sync.Mutex
  openCounts uint64
}
}
namespace github.com\\hyperledger\\fabric\\core\\ledger\\kvledger\\txmgmt\\statedb\\statecouchdb {
 class VersionedDB {
  db *couchdb.CouchDatabase
  dbName string
}
}
namespace github.com\\hyperledger\\fabric\\core\\ledger\\kvledger\\txmgmt\\statedb\\statecouchdb {
 class couchSavepointData {
  BlockNum uint64
  TxNum uint64
  UpdateSeq string
}
}
namespace github.com\\hyperledger\\fabric\\core\\ledger\\kvledger\\txmgmt\\statedb\\statecouchdb {
 class kvScanner {
  cursor int
  namespace string
  results []couchdb.QueryResult
}
}
namespace github.com\\hyperledger\\fabric\\core\\ledger\\kvledger\\txmgmt\\statedb\\statecouchdb {
 class queryScanner {
  cursor int
  results []couchdb.QueryResult
}
}
namespace github.com\\hyperledger\\fabric\\core\\ledger\\kvledger\\txmgmt\\statedb\\statecouchdb {
 class TestVDBEnv {
  t testing.TB
  DBProvider statedb.VersionedDBProvider
}
}
namespace github.com\\hyperledger\\fabric\\core\\ledger\\kvledger\\txmgmt\\statedb {
 class CompositeKey {
  Namespace string
  Key string
}
}
namespace github.com\\hyperledger\\fabric\\core\\ledger\\kvledger\\txmgmt\\statedb {
 class VersionedValue {
  Value []byte
  Version *version.Height
}
}
namespace github.com\\hyperledger\\fabric\\core\\ledger\\kvledger\\txmgmt\\statedb {
 class VersionedKV {
  CompositeKey
  VersionedValue
}
}
namespace github.com\\hyperledger\\fabric\\core\\ledger\\kvledger\\txmgmt\\statedb {
 class nsUpdates {
  m map[string]*VersionedValue
}
}
namespace github.com\\hyperledger\\fabric\\core\\ledger\\kvledger\\txmgmt\\statedb {
 class UpdateBatch {
  updates map[string]*nsUpdates
}
}
namespace github.com\\hyperledger\\fabric\\core\\ledger\\kvledger\\txmgmt\\statedb {
 class nsIterator {
  ns string
  nsUpdates *nsUpdates
  sortedKeys []string
  nextIndex int
  lastIndex int
}
}
namespace github.com\\hyperledger\\fabric\\core\\ledger\\kvledger\\txmgmt\\statedb\\stateleveldb {
 class VersionedDBProvider {
  dbProvider *leveldbhelper.Provider
}
}
namespace github.com\\hyperledger\\fabric\\core\\ledger\\kvledger\\txmgmt\\statedb\\stateleveldb {
 class versionedDB {
  db *leveldbhelper.DBHandle
  dbName string
}
}
namespace github.com\\hyperledger\\fabric\\core\\ledger\\kvledger\\txmgmt\\statedb\\stateleveldb {
 class kvScanner {
  namespace string
  dbItr iterator.Iterator
}
}
namespace github.com\\hyperledger\\fabric\\core\\ledger\\kvledger\\txmgmt\\statedb\\stateleveldb {
 class TestVDBEnv {
  t testing.TB
  DBProvider statedb.VersionedDBProvider
}
}
namespace github.com\\hyperledger\\fabric\\core\\ledger\\kvledger\\txmgmt\\txmgr\\lockbasedtxmgr {
 class queryHelper {
  txmgr *LockBasedTxMgr
  rwsetBuilder *rwsetutil.RWSetBuilder
  itrs []*resultsItr
  err error
  doneInvoked bool
}
}
namespace github.com\\hyperledger\\fabric\\core\\ledger\\kvledger\\txmgmt\\txmgr\\lockbasedtxmgr {
 class resultsItr {
  ns string
  endKey string
  dbItr statedb.ResultsIterator
  rwSetBuilder *rwsetutil.RWSetBuilder
  rangeQueryInfo *kvrwset.RangeQueryInfo
  rangeQueryResultsHelper *rwsetutil.RangeQueryResultsHelper
}
}
namespace github.com\\hyperledger\\fabric\\core\\ledger\\kvledger\\txmgmt\\txmgr\\lockbasedtxmgr {
 class queryResultsItr {
  DBItr statedb.ResultsIterator
  RWSetBuilder *rwsetutil.RWSetBuilder
}
}
namespace github.com\\hyperledger\\fabric\\core\\ledger\\kvledger\\txmgmt\\txmgr\\lockbasedtxmgr {
 class lockBasedQueryExecutor {
  helper *queryHelper
  id string
}
}
namespace github.com\\hyperledger\\fabric\\core\\ledger\\kvledger\\txmgmt\\txmgr\\lockbasedtxmgr {
 class lockBasedTxSimulator {
  lockBasedQueryExecutor
  rwsetBuilder *rwsetutil.RWSetBuilder
}
}
namespace github.com\\hyperledger\\fabric\\core\\ledger\\kvledger\\txmgmt\\txmgr\\lockbasedtxmgr {
 class LockBasedTxMgr {
  db statedb.VersionedDB
  validator validator.Validator
  batch *statedb.UpdateBatch
  currentBlock *common.Block
  commitRWLock sync.RWMutex
}
}
namespace github.com\\hyperledger\\fabric\\core\\ledger\\kvledger\\txmgmt\\validator\\statebasedval {
 class combinedIterator {
  ns string
  db statedb.VersionedDB
  updates *statedb.UpdateBatch
  endKey string
  includeEndKey bool
  dbItr statedb.ResultsIterator
  updatesItr statedb.ResultsIterator
  dbItem statedb.QueryResult
  updatesItem statedb.QueryResult
  endKeyServed bool
}
}
namespace github.com\\hyperledger\\fabric\\core\\ledger\\kvledger\\txmgmt\\validator\\statebasedval {
 class rangeQueryResultsValidator {
  rqInfo *kvrwset.RangeQueryInfo
  itr statedb.ResultsIterator
}
}
namespace github.com\\hyperledger\\fabric\\core\\ledger\\kvledger\\txmgmt\\validator\\statebasedval {
 class rangeQueryHashValidator {
  rqInfo *kvrwset.RangeQueryInfo
  itr statedb.ResultsIterator
  resultsHelper *rwsetutil.RangeQueryResultsHelper
}
}
namespace github.com\\hyperledger\\fabric\\core\\ledger\\kvledger\\txmgmt\\validator\\statebasedval {
 class Validator {
  db statedb.VersionedDB
}
}
namespace github.com\\hyperledger\\fabric\\core\\ledger\\kvledger\\txmgmt\\version {
 class Height {
  BlockNum uint64
  TxNum uint64
}
}
namespace github.com\\hyperledger\\fabric\\core\\ledger\\ledgermgmt {
 class closableLedger {
  id string
  ledger.PeerLedger
}
}
namespace github.com\\hyperledger\\fabric\\core\\ledger\\testutil {
 class TestRandomNumberGenerator {
  rand *mathRand.Rand
  maxNumber int
}
}
namespace github.com\\hyperledger\\fabric\\core\\ledger\\util\\couchdb {
 class CouchDBDef {
  URL string
  Username string
  Password string
  MaxRetries int
  MaxRetriesOnStartup int
  RequestTimeout time.Duration
}
}
namespace github.com\\hyperledger\\fabric\\core\\ledger\\util\\couchdb {
 class DBOperationResponse {
  Ok bool
  id string
  rev string
}
}
namespace github.com\\hyperledger\\fabric\\core\\ledger\\util\\couchdb {
 class DBInfo {
  DbName string
  UpdateSeq string
  Sizes struct {   File int   External int   Active int }
  PurgeSeq int
  Other struct {   DataSize int }
  DocDelCount int
  DocCount int
  DiskSize int
  DiskFormatVersion int
  DataSize int
  CompactRunning bool
  InstanceStartTime string
}
}
namespace github.com\\hyperledger\\fabric\\core\\ledger\\util\\couchdb {
 class ConnectionInfo {
  Couchdb string
  Version string
  Vendor struct {   Name string }
}
}
namespace github.com\\hyperledger\\fabric\\core\\ledger\\util\\couchdb {
 class RangeQueryResponse {
  TotalRows int
  Offset int
  Rows []struct {   ID string   Key string   Value struct {   Rev string }   Doc json.RawMessage }
}
}
namespace github.com\\hyperledger\\fabric\\core\\ledger\\util\\couchdb {
 class QueryResponse {
  Warning string
  Docs []json.RawMessage
}
}
namespace github.com\\hyperledger\\fabric\\core\\ledger\\util\\couchdb {
 class Doc {
  ID string
  Rev string
  Attachments json.RawMessage
}
}
namespace github.com\\hyperledger\\fabric\\core\\ledger\\util\\couchdb {
 class DocID {
  ID string
}
}
namespace github.com\\hyperledger\\fabric\\core\\ledger\\util\\couchdb {
 class QueryResult {
  ID string
  Value []byte
  Attachments []*Attachment
}
}
namespace github.com\\hyperledger\\fabric\\core\\ledger\\util\\couchdb {
 class CouchConnectionDef {
  URL string
  Username string
  Password string
  MaxRetries int
  MaxRetriesOnStartup int
  RequestTimeout time.Duration
}
}
namespace github.com\\hyperledger\\fabric\\core\\ledger\\util\\couchdb {
 class CouchInstance {
  conf CouchConnectionDef
  client *http.Client
}
}
namespace github.com\\hyperledger\\fabric\\core\\ledger\\util\\couchdb {
 class CouchDatabase {
  CouchInstance CouchInstance
  DBName string
}
}
namespace github.com\\hyperledger\\fabric\\core\\ledger\\util\\couchdb {
 class DBReturn {
  StatusCode int
  Error string
  Reason string
}
}
namespace github.com\\hyperledger\\fabric\\core\\ledger\\util\\couchdb {
 class Attachment {
  Name string
  ContentType string
  Length uint64
  AttachmentBytes []byte
}
}
namespace github.com\\hyperledger\\fabric\\core\\ledger\\util\\couchdb {
 class DocMetadata {
  ID string
  Rev string
  Version string
}
}
namespace github.com\\hyperledger\\fabric\\core\\ledger\\util\\couchdb {
 class FileDetails {
  Follows bool
  ContentType string
  Length int
}
}
namespace github.com\\hyperledger\\fabric\\core\\ledger\\util\\couchdb {
 class CouchDoc {
  JSONValue []byte
  Attachments []*Attachment
}
}
namespace github.com\\hyperledger\\fabric\\core\\ledger\\util\\couchdb {
 class BatchRetrieveDocMedatadataResponse {
  Rows []struct {   ID string   Doc struct {   ID string   Rev string   Version string } }
}
}
namespace github.com\\hyperledger\\fabric\\core\\ledger\\util\\couchdb {
 class BatchUpdateResponse {
  ID string
  Error string
  Reason string
  Ok bool
  Rev string
}
}
namespace github.com\\hyperledger\\fabric\\core\\ledger\\util\\couchdb {
 class Base64Attachment {
  ContentType string
  AttachmentData string
}
}
namespace github.com\\hyperledger\\fabric\\core\\ledger\\kvledger\\history\\historydb {
 interface HistoryDBProvider  {
  GetDBHandle(id string)(HistoryDB,error)
  Close()
}
}
namespace github.com\\hyperledger\\fabric\\core\\ledger\\kvledger\\history\\historydb {
 interface HistoryDB  {
  NewHistoryQueryExecutor(blockStore blkstorage.BlockStore)(ledger.HistoryQueryExecutor,error)
  Commit(block *common.Block)error
  GetLastSavepoint()(*version.Height,error)
  ShouldRecover(lastAvailableBlock uint64)(bool,uint64,error)
  CommitLostBlock(block *common.Block)error
}
}
namespace github.com\\hyperledger\\fabric\\core\\ledger\\kvledger {
 interface recoverable  {
  ShouldRecover(lastAvailableBlock uint64)(bool,uint64,error)
  CommitLostBlock(block *common.Block)error
}
}
namespace github.com\\hyperledger\\fabric\\core\\ledger\\kvledger\\txmgmt\\statedb {
 interface VersionedDBProvider  {
  GetDBHandle(id string)(VersionedDB,error)
  Close()
}
}
namespace github.com\\hyperledger\\fabric\\core\\ledger\\kvledger\\txmgmt\\statedb {
 interface VersionedDB  {
  GetState(namespace string,key string)(*VersionedValue,error)
  GetStateMultipleKeys(namespace string,keys []string)([]*VersionedValue,error)
  GetStateRangeScanIterator(namespace string,startKey string,endKey string)(ResultsIterator,error)
  ExecuteQuery(namespace,query string)(ResultsIterator,error)
  ApplyUpdates(batch *UpdateBatch,height *version.Height)error
  GetLatestSavePoint()(*version.Height,error)
  ValidateKey(key string)error
  Open()error
  Close()
}
}
namespace github.com\\hyperledger\\fabric\\core\\ledger\\kvledger\\txmgmt\\statedb {
 interface ResultsIterator  {
  Next()(QueryResult,error)
  Close()
}
}
namespace github.com\\hyperledger\\fabric\\core\\ledger\\kvledger\\txmgmt\\statedb {
 interface QueryResult  {
}
}
namespace github.com\\hyperledger\\fabric\\core\\ledger\\kvledger\\txmgmt\\txmgr {
 interface TxMgr  {
  NewQueryExecutor()(ledger.QueryExecutor,error)
  NewTxSimulator()(ledger.TxSimulator,error)
  ValidateAndPrepare(block *common.Block,doMVCCValidation bool)error
  GetLastSavepoint()(*version.Height,error)
  ShouldRecover(lastAvailableBlock uint64)(bool,uint64,error)
  CommitLostBlock(block *common.Block)error
  Commit()error
  Rollback()
  Shutdown()
}
}
namespace github.com\\hyperledger\\fabric\\core\\ledger\\kvledger\\txmgmt\\validator\\statebasedval {
 interface rangeQueryValidator  {
  init(rqInfo *kvrwset.RangeQueryInfo,itr statedb.ResultsIterator)error
  validate()(bool,error)
}
}
namespace github.com\\hyperledger\\fabric\\core\\ledger\\kvledger\\txmgmt\\validator {
 interface Validator  {
  ValidateAndPrepareBatch(block *common.Block,doMVCCValidation bool)(*statedb.UpdateBatch,error)
}
}
namespace github.com\\hyperledger\\fabric\\core\\ledger {
 interface PeerLedgerProvider  {
  Create(genesisBlock *common.Block)(PeerLedger,error)
  Open(ledgerID string)(PeerLedger,error)
  Exists(ledgerID string)(bool,error)
  List()([]string,error)
  Close()
}
}
namespace github.com\\hyperledger\\fabric\\core\\ledger {
 interface PeerLedger  {
  GetTransactionByID(txID string)(*peer.ProcessedTransaction,error)
  GetBlockByHash(blockHash []byte)(*common.Block,error)
  GetBlockByTxID(txID string)(*common.Block,error)
  GetTxValidationCodeByTxID(txID string)(peer.TxValidationCode,error)
  NewTxSimulator()(TxSimulator,error)
  NewQueryExecutor()(QueryExecutor,error)
  NewHistoryQueryExecutor()(HistoryQueryExecutor,error)
  Prune(policy commonledger.PrunePolicy)error
}
}
namespace github.com\\hyperledger\\fabric\\core\\ledger {
 interface ValidatedLedger  {
}
}
namespace github.com\\hyperledger\\fabric\\core\\ledger {
 interface QueryExecutor  {
  GetState(namespace string,key string)([]byte,error)
  GetStateMultipleKeys(namespace string,keys []string)([][]byte,error)
  GetStateRangeScanIterator(namespace string,startKey string,endKey string)(commonledger.ResultsIterator,error)
  ExecuteQuery(namespace,query string)(commonledger.ResultsIterator,error)
  Done()
}
}
namespace github.com\\hyperledger\\fabric\\core\\ledger {
 interface HistoryQueryExecutor  {
  GetHistoryForKey(namespace string,key string)(commonledger.ResultsIterator,error)
}
}
namespace github.com\\hyperledger\\fabric\\core\\ledger {
 interface TxSimulator  {
  SetState(namespace string,key string,value []byte)error
  DeleteState(namespace string,key string)error
  SetStateMultipleKeys(namespace string,kvs map[string][]byte)error
  ExecuteUpdate(query string)error
  GetTxSimulationResults()([]byte,error)
}
}
github.com\\hyperledger\\fabric\\core\\ledger\\kvledger\\history\\historydb\\historyleveldb.LevelHistoryDBQueryExecutor ---> github.com\\hyperledger\\fabric\\core\\ledger\\kvledger\\history\\historydb\\historyleveldb.historyDB : historyDB
github.com\\hyperledger\\fabric\\core\\ledger\\kvledger.Provider ---> github.com\\hyperledger\\fabric\\core\\ledger\\kvledger.idStore : idStore
github.com\\hyperledger\\fabric\\core\\ledger\\kvledger\\txmgmt\\rwsetutil.RangeQueryResultsHelper ---> github.com\\hyperledger\\fabric\\core\\ledger\\kvledger\\txmgmt\\rwsetutil.merkleTree : mt
github.com\\hyperledger\\fabric\\core\\ledger\\kvledger\\txmgmt\\rwsetutil.nsRWs ---> "*" github.com\\hyperledger\\fabric\\core\\ledger\\kvledger\\txmgmt\\rwsetutil.rangeQueryKey : rangeQueriesKeys
github.com\\hyperledger\\fabric\\core\\ledger\\kvledger\\txmgmt\\rwsetutil.RWSetBuilder ---> "*" github.com\\hyperledger\\fabric\\core\\ledger\\kvledger\\txmgmt\\rwsetutil.nsRWs : rwMap
github.com\\hyperledger\\fabric\\core\\ledger\\kvledger\\txmgmt\\rwsetutil.TxRwSet ---> "*" github.com\\hyperledger\\fabric\\core\\ledger\\kvledger\\txmgmt\\rwsetutil.NsRwSet : NsRwSets
github.com\\hyperledger\\fabric\\core\\ledger\\kvledger\\txmgmt\\statedb\\statecouchdb.VersionedDBProvider ---> github.com\\hyperledger\\fabric\\core\\ledger\\util\\couchdb.CouchInstance : couchInstance
github.com\\hyperledger\\fabric\\core\\ledger\\kvledger\\txmgmt\\statedb\\statecouchdb.VersionedDBProvider ---> "*" github.com\\hyperledger\\fabric\\core\\ledger\\kvledger\\txmgmt\\statedb\\statecouchdb.VersionedDB : databases
github.com\\hyperledger\\fabric\\core\\ledger\\kvledger\\txmgmt\\statedb\\statecouchdb.VersionedDB ---> github.com\\hyperledger\\fabric\\core\\ledger\\util\\couchdb.CouchDatabase : db
github.com\\hyperledger\\fabric\\core\\ledger\\kvledger\\txmgmt\\statedb\\statecouchdb.kvScanner ---> "*" github.com\\hyperledger\\fabric\\core\\ledger\\util\\couchdb.QueryResult : results
github.com\\hyperledger\\fabric\\core\\ledger\\kvledger\\txmgmt\\statedb\\statecouchdb.queryScanner ---> "*" github.com\\hyperledger\\fabric\\core\\ledger\\util\\couchdb.QueryResult : results
github.com\\hyperledger\\fabric\\core\\ledger\\kvledger\\txmgmt\\statedb.VersionedValue ---> github.com\\hyperledger\\fabric\\core\\ledger\\kvledger\\txmgmt\\version.Height : Version
github.com\\hyperledger\\fabric\\core\\ledger\\kvledger\\txmgmt\\statedb.VersionedKV -|> github.com\\hyperledger\\fabric\\core\\ledger\\kvledger\\txmgmt\\statedb.CompositeKey
github.com\\hyperledger\\fabric\\core\\ledger\\kvledger\\txmgmt\\statedb.VersionedKV -|> github.com\\hyperledger\\fabric\\core\\ledger\\kvledger\\txmgmt\\statedb.VersionedValue
github.com\\hyperledger\\fabric\\core\\ledger\\kvledger\\txmgmt\\statedb.nsUpdates ---> "*" github.com\\hyperledger\\fabric\\core\\ledger\\kvledger\\txmgmt\\statedb.VersionedValue : m
github.com\\hyperledger\\fabric\\core\\ledger\\kvledger\\txmgmt\\statedb.UpdateBatch ---> "*" github.com\\hyperledger\\fabric\\core\\ledger\\kvledger\\txmgmt\\statedb.nsUpdates : updates
github.com\\hyperledger\\fabric\\core\\ledger\\kvledger\\txmgmt\\statedb.nsIterator ---> github.com\\hyperledger\\fabric\\core\\ledger\\kvledger\\txmgmt\\statedb.nsUpdates : nsUpdates
github.com\\hyperledger\\fabric\\core\\ledger\\kvledger\\txmgmt\\txmgr\\lockbasedtxmgr.queryHelper ---> github.com\\hyperledger\\fabric\\core\\ledger\\kvledger\\txmgmt\\txmgr\\lockbasedtxmgr.LockBasedTxMgr : txmgr
github.com\\hyperledger\\fabric\\core\\ledger\\kvledger\\txmgmt\\txmgr\\lockbasedtxmgr.queryHelper ---> github.com\\hyperledger\\fabric\\core\\ledger\\kvledger\\txmgmt\\rwsetutil.RWSetBuilder : rwsetBuilder
github.com\\hyperledger\\fabric\\core\\ledger\\kvledger\\txmgmt\\txmgr\\lockbasedtxmgr.queryHelper ---> "*" github.com\\hyperledger\\fabric\\core\\ledger\\kvledger\\txmgmt\\txmgr\\lockbasedtxmgr.resultsItr : itrs
github.com\\hyperledger\\fabric\\core\\ledger\\kvledger\\txmgmt\\txmgr\\lockbasedtxmgr.resultsItr ---> github.com\\hyperledger\\fabric\\core\\ledger\\kvledger\\txmgmt\\rwsetutil.RWSetBuilder : rwSetBuilder
github.com\\hyperledger\\fabric\\core\\ledger\\kvledger\\txmgmt\\txmgr\\lockbasedtxmgr.resultsItr ---> github.com\\hyperledger\\fabric\\core\\ledger\\kvledger\\txmgmt\\rwsetutil.RangeQueryResultsHelper : rangeQueryResultsHelper
github.com\\hyperledger\\fabric\\core\\ledger\\kvledger\\txmgmt\\txmgr\\lockbasedtxmgr.queryResultsItr ---> github.com\\hyperledger\\fabric\\core\\ledger\\kvledger\\txmgmt\\rwsetutil.RWSetBuilder : RWSetBuilder
github.com\\hyperledger\\fabric\\core\\ledger\\kvledger\\txmgmt\\txmgr\\lockbasedtxmgr.lockBasedQueryExecutor ---> github.com\\hyperledger\\fabric\\core\\ledger\\kvledger\\txmgmt\\txmgr\\lockbasedtxmgr.queryHelper : helper
github.com\\hyperledger\\fabric\\core\\ledger\\kvledger\\txmgmt\\txmgr\\lockbasedtxmgr.lockBasedTxSimulator -|> github.com\\hyperledger\\fabric\\core\\ledger\\kvledger\\txmgmt\\txmgr\\lockbasedtxmgr.lockBasedQueryExecutor
github.com\\hyperledger\\fabric\\core\\ledger\\kvledger\\txmgmt\\txmgr\\lockbasedtxmgr.lockBasedTxSimulator ---> github.com\\hyperledger\\fabric\\core\\ledger\\kvledger\\txmgmt\\rwsetutil.RWSetBuilder : rwsetBuilder
github.com\\hyperledger\\fabric\\core\\ledger\\kvledger\\txmgmt\\txmgr\\lockbasedtxmgr.LockBasedTxMgr ---> github.com\\hyperledger\\fabric\\core\\ledger\\kvledger\\txmgmt\\statedb.UpdateBatch : batch
github.com\\hyperledger\\fabric\\core\\ledger\\kvledger\\txmgmt\\validator\\statebasedval.combinedIterator ---> github.com\\hyperledger\\fabric\\core\\ledger\\kvledger\\txmgmt\\statedb.UpdateBatch : updates
github.com\\hyperledger\\fabric\\core\\ledger\\kvledger\\txmgmt\\validator\\statebasedval.rangeQueryHashValidator ---> github.com\\hyperledger\\fabric\\core\\ledger\\kvledger\\txmgmt\\rwsetutil.RangeQueryResultsHelper : resultsHelper
github.com\\hyperledger\\fabric\\core\\ledger\\util\\couchdb.QueryResult ---> "*" github.com\\hyperledger\\fabric\\core\\ledger\\util\\couchdb.Attachment : Attachments
github.com\\hyperledger\\fabric\\core\\ledger\\util\\couchdb.CouchInstance ---> github.com\\hyperledger\\fabric\\core\\ledger\\util\\couchdb.CouchConnectionDef : conf
github.com\\hyperledger\\fabric\\core\\ledger\\util\\couchdb.CouchDatabase ---> github.com\\hyperledger\\fabric\\core\\ledger\\util\\couchdb.CouchInstance : CouchInstance
github.com\\hyperledger\\fabric\\core\\ledger\\util\\couchdb.CouchDoc ---> "*" github.com\\hyperledger\\fabric\\core\\ledger\\util\\couchdb.Attachment : Attachments
github.com\\hyperledger\\fabric\\core\\ledger\\kvledger\\history\\historydb.HistoryDBProvider <|- github.com\\hyperledger\\fabric\\core\\ledger\\kvledger\\history\\historydb\\historyleveldb.HistoryDBProvider
github.com\\hyperledger\\fabric\\core\\ledger\\kvledger\\history\\historydb.HistoryDB <|- github.com\\hyperledger\\fabric\\core\\ledger\\kvledger\\history\\historydb\\historyleveldb.historyDB
github.com\\hyperledger\\fabric\\core\\ledger\\kvledger.recoverable <|- github.com\\hyperledger\\fabric\\core\\ledger\\kvledger\\history\\historydb\\historyleveldb.historyDB
github.com\\hyperledger\\fabric\\core\\ledger\\kvledger.recoverable <|- github.com\\hyperledger\\fabric\\core\\ledger\\kvledger\\txmgmt\\txmgr\\lockbasedtxmgr.LockBasedTxMgr
github.com\\hyperledger\\fabric\\core\\ledger\\kvledger\\txmgmt\\statedb.VersionedDBProvider <|- github.com\\hyperledger\\fabric\\core\\ledger\\kvledger\\txmgmt\\statedb\\statecouchdb.VersionedDBProvider
github.com\\hyperledger\\fabric\\core\\ledger\\kvledger\\txmgmt\\statedb.VersionedDBProvider <|- github.com\\hyperledger\\fabric\\core\\ledger\\kvledger\\txmgmt\\statedb\\stateleveldb.VersionedDBProvider
github.com\\hyperledger\\fabric\\core\\ledger\\kvledger\\txmgmt\\statedb.VersionedDB <|- github.com\\hyperledger\\fabric\\core\\ledger\\kvledger\\txmgmt\\statedb\\statecouchdb.VersionedDB
github.com\\hyperledger\\fabric\\core\\ledger\\kvledger\\txmgmt\\statedb.VersionedDB <|- github.com\\hyperledger\\fabric\\core\\ledger\\kvledger\\txmgmt\\statedb\\stateleveldb.versionedDB
github.com\\hyperledger\\fabric\\core\\ledger\\kvledger\\txmgmt\\statedb.ResultsIterator <|- github.com\\hyperledger\\fabric\\core\\ledger\\kvledger\\txmgmt\\statedb\\statecouchdb.kvScanner
github.com\\hyperledger\\fabric\\core\\ledger\\kvledger\\txmgmt\\statedb.ResultsIterator <|- github.com\\hyperledger\\fabric\\core\\ledger\\kvledger\\txmgmt\\statedb\\statecouchdb.queryScanner
github.com\\hyperledger\\fabric\\core\\ledger\\kvledger\\txmgmt\\statedb.ResultsIterator <|- github.com\\hyperledger\\fabric\\core\\ledger\\kvledger\\txmgmt\\statedb.nsIterator
github.com\\hyperledger\\fabric\\core\\ledger\\kvledger\\txmgmt\\statedb.ResultsIterator <|- github.com\\hyperledger\\fabric\\core\\ledger\\kvledger\\txmgmt\\statedb\\stateleveldb.kvScanner
github.com\\hyperledger\\fabric\\core\\ledger\\kvledger\\txmgmt\\statedb.ResultsIterator <|- github.com\\hyperledger\\fabric\\core\\ledger\\kvledger\\txmgmt\\validator\\statebasedval.combinedIterator
github.com\\hyperledger\\fabric\\core\\ledger\\kvledger\\txmgmt\\statedb.QueryResult <|- github.com\\hyperledger\\fabric\\core\\ledger\\kvledger\\example.App
github.com\\hyperledger\\fabric\\core\\ledger\\kvledger\\txmgmt\\statedb.QueryResult <|- github.com\\hyperledger\\fabric\\core\\ledger\\kvledger\\example.Committer
github.com\\hyperledger\\fabric\\core\\ledger\\kvledger\\txmgmt\\statedb.QueryResult <|- github.com\\hyperledger\\fabric\\core\\ledger\\kvledger\\example.Consenter
github.com\\hyperledger\\fabric\\core\\ledger\\kvledger\\txmgmt\\statedb.QueryResult <|- github.com\\hyperledger\\fabric\\core\\ledger\\kvledger\\example.MarbleApp
github.com\\hyperledger\\fabric\\core\\ledger\\kvledger\\txmgmt\\statedb.QueryResult <|- github.com\\hyperledger\\fabric\\core\\ledger\\kvledger\\example.Marble
github.com\\hyperledger\\fabric\\core\\ledger\\kvledger\\txmgmt\\statedb.QueryResult <|- github.com\\hyperledger\\fabric\\core\\ledger\\kvledger\\history\\historydb\\historyleveldb.HistoryDBProvider
github.com\\hyperledger\\fabric\\core\\ledger\\kvledger\\txmgmt\\statedb.QueryResult <|- github.com\\hyperledger\\fabric\\core\\ledger\\kvledger\\history\\historydb\\historyleveldb.historyDB
github.com\\hyperledger\\fabric\\core\\ledger\\kvledger\\txmgmt\\statedb.QueryResult <|- github.com\\hyperledger\\fabric\\core\\ledger\\kvledger\\history\\historydb\\historyleveldb.LevelHistoryDBQueryExecutor
github.com\\hyperledger\\fabric\\core\\ledger\\kvledger\\txmgmt\\statedb.QueryResult <|- github.com\\hyperledger\\fabric\\core\\ledger\\kvledger\\history\\historydb\\historyleveldb.historyScanner
github.com\\hyperledger\\fabric\\core\\ledger\\kvledger\\txmgmt\\statedb.QueryResult <|- github.com\\hyperledger\\fabric\\core\\ledger\\kvledger.kvLedger
github.com\\hyperledger\\fabric\\core\\ledger\\kvledger\\txmgmt\\statedb.QueryResult <|- github.com\\hyperledger\\fabric\\core\\ledger\\kvledger.Provider
github.com\\hyperledger\\fabric\\core\\ledger\\kvledger\\txmgmt\\statedb.QueryResult <|- github.com\\hyperledger\\fabric\\core\\ledger\\kvledger.idStore
github.com\\hyperledger\\fabric\\core\\ledger\\kvledger\\txmgmt\\statedb.QueryResult <|- github.com\\hyperledger\\fabric\\core\\ledger\\kvledger.recoverer
github.com\\hyperledger\\fabric\\core\\ledger\\kvledger\\txmgmt\\statedb.QueryResult <|- github.com\\hyperledger\\fabric\\core\\ledger\\kvledger\\txmgmt\\rwsetutil.RangeQueryResultsHelper
github.com\\hyperledger\\fabric\\core\\ledger\\kvledger\\txmgmt\\statedb.QueryResult <|- github.com\\hyperledger\\fabric\\core\\ledger\\kvledger\\txmgmt\\rwsetutil.merkleTree
github.com\\hyperledger\\fabric\\core\\ledger\\kvledger\\txmgmt\\statedb.QueryResult <|- github.com\\hyperledger\\fabric\\core\\ledger\\kvledger\\txmgmt\\rwsetutil.nsRWs
github.com\\hyperledger\\fabric\\core\\ledger\\kvledger\\txmgmt\\statedb.QueryResult <|- github.com\\hyperledger\\fabric\\core\\ledger\\kvledger\\txmgmt\\rwsetutil.rangeQueryKey
github.com\\hyperledger\\fabric\\core\\ledger\\kvledger\\txmgmt\\statedb.QueryResult <|- github.com\\hyperledger\\fabric\\core\\ledger\\kvledger\\txmgmt\\rwsetutil.RWSetBuilder
github.com\\hyperledger\\fabric\\core\\ledger\\kvledger\\txmgmt\\statedb.QueryResult <|- github.com\\hyperledger\\fabric\\core\\ledger\\kvledger\\txmgmt\\rwsetutil.TxRwSet
github.com\\hyperledger\\fabric\\core\\ledger\\kvledger\\txmgmt\\statedb.QueryResult <|- github.com\\hyperledger\\fabric\\core\\ledger\\kvledger\\txmgmt\\rwsetutil.NsRwSet
github.com\\hyperledger\\fabric\\core\\ledger\\kvledger\\txmgmt\\statedb.QueryResult <|- github.com\\hyperledger\\fabric\\core\\ledger\\kvledger\\txmgmt\\statedb\\statecouchdb.VersionedDBProvider
github.com\\hyperledger\\fabric\\core\\ledger\\kvledger\\txmgmt\\statedb.QueryResult <|- github.com\\hyperledger\\fabric\\core\\ledger\\kvledger\\txmgmt\\statedb\\statecouchdb.VersionedDB
github.com\\hyperledger\\fabric\\core\\ledger\\kvledger\\txmgmt\\statedb.QueryResult <|- github.com\\hyperledger\\fabric\\core\\ledger\\kvledger\\txmgmt\\statedb\\statecouchdb.couchSavepointData
github.com\\hyperledger\\fabric\\core\\ledger\\kvledger\\txmgmt\\statedb.QueryResult <|- github.com\\hyperledger\\fabric\\core\\ledger\\kvledger\\txmgmt\\statedb\\statecouchdb.kvScanner
github.com\\hyperledger\\fabric\\core\\ledger\\kvledger\\txmgmt\\statedb.QueryResult <|- github.com\\hyperledger\\fabric\\core\\ledger\\kvledger\\txmgmt\\statedb\\statecouchdb.queryScanner
github.com\\hyperledger\\fabric\\core\\ledger\\kvledger\\txmgmt\\statedb.QueryResult <|- github.com\\hyperledger\\fabric\\core\\ledger\\kvledger\\txmgmt\\statedb\\statecouchdb.TestVDBEnv
github.com\\hyperledger\\fabric\\core\\ledger\\kvledger\\txmgmt\\statedb.QueryResult <|- github.com\\hyperledger\\fabric\\core\\ledger\\kvledger\\txmgmt\\statedb.CompositeKey
github.com\\hyperledger\\fabric\\core\\ledger\\kvledger\\txmgmt\\statedb.QueryResult <|- github.com\\hyperledger\\fabric\\core\\ledger\\kvledger\\txmgmt\\statedb.VersionedValue
github.com\\hyperledger\\fabric\\core\\ledger\\kvledger\\txmgmt\\statedb.QueryResult <|- github.com\\hyperledger\\fabric\\core\\ledger\\kvledger\\txmgmt\\statedb.VersionedKV
github.com\\hyperledger\\fabric\\core\\ledger\\kvledger\\txmgmt\\statedb.QueryResult <|- github.com\\hyperledger\\fabric\\core\\ledger\\kvledger\\txmgmt\\statedb.nsUpdates
github.com\\hyperledger\\fabric\\core\\ledger\\kvledger\\txmgmt\\statedb.QueryResult <|- github.com\\hyperledger\\fabric\\core\\ledger\\kvledger\\txmgmt\\statedb.UpdateBatch
github.com\\hyperledger\\fabric\\core\\ledger\\kvledger\\txmgmt\\statedb.QueryResult <|- github.com\\hyperledger\\fabric\\core\\ledger\\kvledger\\txmgmt\\statedb.nsIterator
github.com\\hyperledger\\fabric\\core\\ledger\\kvledger\\txmgmt\\statedb.QueryResult <|- github.com\\hyperledger\\fabric\\core\\ledger\\kvledger\\txmgmt\\statedb\\stateleveldb.VersionedDBProvider
github.com\\hyperledger\\fabric\\core\\ledger\\kvledger\\txmgmt\\statedb.QueryResult <|- github.com\\hyperledger\\fabric\\core\\ledger\\kvledger\\txmgmt\\statedb\\stateleveldb.versionedDB
github.com\\hyperledger\\fabric\\core\\ledger\\kvledger\\txmgmt\\statedb.QueryResult <|- github.com\\hyperledger\\fabric\\core\\ledger\\kvledger\\txmgmt\\statedb\\stateleveldb.kvScanner
github.com\\hyperledger\\fabric\\core\\ledger\\kvledger\\txmgmt\\statedb.QueryResult <|- github.com\\hyperledger\\fabric\\core\\ledger\\kvledger\\txmgmt\\statedb\\stateleveldb.TestVDBEnv
github.com\\hyperledger\\fabric\\core\\ledger\\kvledger\\txmgmt\\statedb.QueryResult <|- github.com\\hyperledger\\fabric\\core\\ledger\\kvledger\\txmgmt\\txmgr\\lockbasedtxmgr.queryHelper
github.com\\hyperledger\\fabric\\core\\ledger\\kvledger\\txmgmt\\statedb.QueryResult <|- github.com\\hyperledger\\fabric\\core\\ledger\\kvledger\\txmgmt\\txmgr\\lockbasedtxmgr.resultsItr
github.com\\hyperledger\\fabric\\core\\ledger\\kvledger\\txmgmt\\statedb.QueryResult <|- github.com\\hyperledger\\fabric\\core\\ledger\\kvledger\\txmgmt\\txmgr\\lockbasedtxmgr.queryResultsItr
github.com\\hyperledger\\fabric\\core\\ledger\\kvledger\\txmgmt\\statedb.QueryResult <|- github.com\\hyperledger\\fabric\\core\\ledger\\kvledger\\txmgmt\\txmgr\\lockbasedtxmgr.lockBasedQueryExecutor
github.com\\hyperledger\\fabric\\core\\ledger\\kvledger\\txmgmt\\statedb.QueryResult <|- github.com\\hyperledger\\fabric\\core\\ledger\\kvledger\\txmgmt\\txmgr\\lockbasedtxmgr.lockBasedTxSimulator
github.com\\hyperledger\\fabric\\core\\ledger\\kvledger\\txmgmt\\statedb.QueryResult <|- github.com\\hyperledger\\fabric\\core\\ledger\\kvledger\\txmgmt\\txmgr\\lockbasedtxmgr.LockBasedTxMgr
github.com\\hyperledger\\fabric\\core\\ledger\\kvledger\\txmgmt\\statedb.QueryResult <|- github.com\\hyperledger\\fabric\\core\\ledger\\kvledger\\txmgmt\\validator\\statebasedval.combinedIterator
github.com\\hyperledger\\fabric\\core\\ledger\\kvledger\\txmgmt\\statedb.QueryResult <|- github.com\\hyperledger\\fabric\\core\\ledger\\kvledger\\txmgmt\\validator\\statebasedval.rangeQueryResultsValidator
github.com\\hyperledger\\fabric\\core\\ledger\\kvledger\\txmgmt\\statedb.QueryResult <|- github.com\\hyperledger\\fabric\\core\\ledger\\kvledger\\txmgmt\\validator\\statebasedval.rangeQueryHashValidator
github.com\\hyperledger\\fabric\\core\\ledger\\kvledger\\txmgmt\\statedb.QueryResult <|- github.com\\hyperledger\\fabric\\core\\ledger\\kvledger\\txmgmt\\validator\\statebasedval.Validator
github.com\\hyperledger\\fabric\\core\\ledger\\kvledger\\txmgmt\\statedb.QueryResult <|- github.com\\hyperledger\\fabric\\core\\ledger\\kvledger\\txmgmt\\version.Height
github.com\\hyperledger\\fabric\\core\\ledger\\kvledger\\txmgmt\\statedb.QueryResult <|- github.com\\hyperledger\\fabric\\core\\ledger\\ledgermgmt.closableLedger
github.com\\hyperledger\\fabric\\core\\ledger\\kvledger\\txmgmt\\statedb.QueryResult <|- github.com\\hyperledger\\fabric\\core\\ledger\\testutil.TestRandomNumberGenerator
github.com\\hyperledger\\fabric\\core\\ledger\\kvledger\\txmgmt\\statedb.QueryResult <|- github.com\\hyperledger\\fabric\\core\\ledger\\util\\couchdb.CouchDBDef
github.com\\hyperledger\\fabric\\core\\ledger\\kvledger\\txmgmt\\statedb.QueryResult <|- github.com\\hyperledger\\fabric\\core\\ledger\\util\\couchdb.DBOperationResponse
github.com\\hyperledger\\fabric\\core\\ledger\\kvledger\\txmgmt\\statedb.QueryResult <|- github.com\\hyperledger\\fabric\\core\\ledger\\util\\couchdb.DBInfo
github.com\\hyperledger\\fabric\\core\\ledger\\kvledger\\txmgmt\\statedb.QueryResult <|- github.com\\hyperledger\\fabric\\core\\ledger\\util\\couchdb.ConnectionInfo
github.com\\hyperledger\\fabric\\core\\ledger\\kvledger\\txmgmt\\statedb.QueryResult <|- github.com\\hyperledger\\fabric\\core\\ledger\\util\\couchdb.RangeQueryResponse
github.com\\hyperledger\\fabric\\core\\ledger\\kvledger\\txmgmt\\statedb.QueryResult <|- github.com\\hyperledger\\fabric\\core\\ledger\\util\\couchdb.QueryResponse
github.com\\hyperledger\\fabric\\core\\ledger\\kvledger\\txmgmt\\statedb.QueryResult <|- github.com\\hyperledger\\fabric\\core\\ledger\\util\\couchdb.Doc
github.com\\hyperledger\\fabric\\core\\ledger\\kvledger\\txmgmt\\statedb.QueryResult <|- github.com\\hyperledger\\fabric\\core\\ledger\\util\\couchdb.DocID
github.com\\hyperledger\\fabric\\core\\ledger\\kvledger\\txmgmt\\statedb.QueryResult <|- github.com\\hyperledger\\fabric\\core\\ledger\\util\\couchdb.QueryResult
github.com\\hyperledger\\fabric\\core\\ledger\\kvledger\\txmgmt\\statedb.QueryResult <|- github.com\\hyperledger\\fabric\\core\\ledger\\util\\couchdb.CouchConnectionDef
github.com\\hyperledger\\fabric\\core\\ledger\\kvledger\\txmgmt\\statedb.QueryResult <|- github.com\\hyperledger\\fabric\\core\\ledger\\util\\couchdb.CouchInstance
github.com\\hyperledger\\fabric\\core\\ledger\\kvledger\\txmgmt\\statedb.QueryResult <|- github.com\\hyperledger\\fabric\\core\\ledger\\util\\couchdb.CouchDatabase
github.com\\hyperledger\\fabric\\core\\ledger\\kvledger\\txmgmt\\statedb.QueryResult <|- github.com\\hyperledger\\fabric\\core\\ledger\\util\\couchdb.DBReturn
github.com\\hyperledger\\fabric\\core\\ledger\\kvledger\\txmgmt\\statedb.QueryResult <|- github.com\\hyperledger\\fabric\\core\\ledger\\util\\couchdb.Attachment
github.com\\hyperledger\\fabric\\core\\ledger\\kvledger\\txmgmt\\statedb.QueryResult <|- github.com\\hyperledger\\fabric\\core\\ledger\\util\\couchdb.DocMetadata
github.com\\hyperledger\\fabric\\core\\ledger\\kvledger\\txmgmt\\statedb.QueryResult <|- github.com\\hyperledger\\fabric\\core\\ledger\\util\\couchdb.FileDetails
github.com\\hyperledger\\fabric\\core\\ledger\\kvledger\\txmgmt\\statedb.QueryResult <|- github.com\\hyperledger\\fabric\\core\\ledger\\util\\couchdb.CouchDoc
github.com\\hyperledger\\fabric\\core\\ledger\\kvledger\\txmgmt\\statedb.QueryResult <|- github.com\\hyperledger\\fabric\\core\\ledger\\util\\couchdb.BatchRetrieveDocMedatadataResponse
github.com\\hyperledger\\fabric\\core\\ledger\\kvledger\\txmgmt\\statedb.QueryResult <|- github.com\\hyperledger\\fabric\\core\\ledger\\util\\couchdb.BatchUpdateResponse
github.com\\hyperledger\\fabric\\core\\ledger\\kvledger\\txmgmt\\statedb.QueryResult <|- github.com\\hyperledger\\fabric\\core\\ledger\\util\\couchdb.Base64Attachment
github.com\\hyperledger\\fabric\\core\\ledger\\kvledger\\txmgmt\\txmgr.TxMgr <|- github.com\\hyperledger\\fabric\\core\\ledger\\kvledger\\txmgmt\\txmgr\\lockbasedtxmgr.LockBasedTxMgr
github.com\\hyperledger\\fabric\\core\\ledger\\kvledger\\txmgmt\\validator\\statebasedval.rangeQueryValidator <|- github.com\\hyperledger\\fabric\\core\\ledger\\kvledger\\txmgmt\\validator\\statebasedval.rangeQueryResultsValidator
github.com\\hyperledger\\fabric\\core\\ledger\\kvledger\\txmgmt\\validator\\statebasedval.rangeQueryValidator <|- github.com\\hyperledger\\fabric\\core\\ledger\\kvledger\\txmgmt\\validator\\statebasedval.rangeQueryHashValidator
github.com\\hyperledger\\fabric\\core\\ledger\\kvledger\\txmgmt\\validator.Validator <|- github.com\\hyperledger\\fabric\\core\\ledger\\kvledger\\txmgmt\\validator\\statebasedval.Validator
github.com\\hyperledger\\fabric\\core\\ledger.PeerLedgerProvider <|- github.com\\hyperledger\\fabric\\core\\ledger\\kvledger.Provider
github.com\\hyperledger\\fabric\\core\\ledger.PeerLedger <|- github.com\\hyperledger\\fabric\\core\\ledger\\kvledger.kvLedger
github.com\\hyperledger\\fabric\\core\\ledger.ValidatedLedger <|- github.com\\hyperledger\\fabric\\core\\ledger\\kvledger\\example.App
github.com\\hyperledger\\fabric\\core\\ledger.ValidatedLedger <|- github.com\\hyperledger\\fabric\\core\\ledger\\kvledger\\example.Committer
github.com\\hyperledger\\fabric\\core\\ledger.ValidatedLedger <|- github.com\\hyperledger\\fabric\\core\\ledger\\kvledger\\example.Consenter
github.com\\hyperledger\\fabric\\core\\ledger.ValidatedLedger <|- github.com\\hyperledger\\fabric\\core\\ledger\\kvledger\\example.MarbleApp
github.com\\hyperledger\\fabric\\core\\ledger.ValidatedLedger <|- github.com\\hyperledger\\fabric\\core\\ledger\\kvledger\\example.Marble
github.com\\hyperledger\\fabric\\core\\ledger.ValidatedLedger <|- github.com\\hyperledger\\fabric\\core\\ledger\\kvledger\\history\\historydb\\historyleveldb.HistoryDBProvider
github.com\\hyperledger\\fabric\\core\\ledger.ValidatedLedger <|- github.com\\hyperledger\\fabric\\core\\ledger\\kvledger\\history\\historydb\\historyleveldb.historyDB
github.com\\hyperledger\\fabric\\core\\ledger.ValidatedLedger <|- github.com\\hyperledger\\fabric\\core\\ledger\\kvledger\\history\\historydb\\historyleveldb.LevelHistoryDBQueryExecutor
github.com\\hyperledger\\fabric\\core\\ledger.ValidatedLedger <|- github.com\\hyperledger\\fabric\\core\\ledger\\kvledger\\history\\historydb\\historyleveldb.historyScanner
github.com\\hyperledger\\fabric\\core\\ledger.ValidatedLedger <|- github.com\\hyperledger\\fabric\\core\\ledger\\kvledger.kvLedger
github.com\\hyperledger\\fabric\\core\\ledger.ValidatedLedger <|- github.com\\hyperledger\\fabric\\core\\ledger\\kvledger.Provider
github.com\\hyperledger\\fabric\\core\\ledger.ValidatedLedger <|- github.com\\hyperledger\\fabric\\core\\ledger\\kvledger.idStore
github.com\\hyperledger\\fabric\\core\\ledger.ValidatedLedger <|- github.com\\hyperledger\\fabric\\core\\ledger\\kvledger.recoverer
github.com\\hyperledger\\fabric\\core\\ledger.ValidatedLedger <|- github.com\\hyperledger\\fabric\\core\\ledger\\kvledger\\txmgmt\\rwsetutil.RangeQueryResultsHelper
github.com\\hyperledger\\fabric\\core\\ledger.ValidatedLedger <|- github.com\\hyperledger\\fabric\\core\\ledger\\kvledger\\txmgmt\\rwsetutil.merkleTree
github.com\\hyperledger\\fabric\\core\\ledger.ValidatedLedger <|- github.com\\hyperledger\\fabric\\core\\ledger\\kvledger\\txmgmt\\rwsetutil.nsRWs
github.com\\hyperledger\\fabric\\core\\ledger.ValidatedLedger <|- github.com\\hyperledger\\fabric\\core\\ledger\\kvledger\\txmgmt\\rwsetutil.rangeQueryKey
github.com\\hyperledger\\fabric\\core\\ledger.ValidatedLedger <|- github.com\\hyperledger\\fabric\\core\\ledger\\kvledger\\txmgmt\\rwsetutil.RWSetBuilder
github.com\\hyperledger\\fabric\\core\\ledger.ValidatedLedger <|- github.com\\hyperledger\\fabric\\core\\ledger\\kvledger\\txmgmt\\rwsetutil.TxRwSet
github.com\\hyperledger\\fabric\\core\\ledger.ValidatedLedger <|- github.com\\hyperledger\\fabric\\core\\ledger\\kvledger\\txmgmt\\rwsetutil.NsRwSet
github.com\\hyperledger\\fabric\\core\\ledger.ValidatedLedger <|- github.com\\hyperledger\\fabric\\core\\ledger\\kvledger\\txmgmt\\statedb\\statecouchdb.VersionedDBProvider
github.com\\hyperledger\\fabric\\core\\ledger.ValidatedLedger <|- github.com\\hyperledger\\fabric\\core\\ledger\\kvledger\\txmgmt\\statedb\\statecouchdb.VersionedDB
github.com\\hyperledger\\fabric\\core\\ledger.ValidatedLedger <|- github.com\\hyperledger\\fabric\\core\\ledger\\kvledger\\txmgmt\\statedb\\statecouchdb.couchSavepointData
github.com\\hyperledger\\fabric\\core\\ledger.ValidatedLedger <|- github.com\\hyperledger\\fabric\\core\\ledger\\kvledger\\txmgmt\\statedb\\statecouchdb.kvScanner
github.com\\hyperledger\\fabric\\core\\ledger.ValidatedLedger <|- github.com\\hyperledger\\fabric\\core\\ledger\\kvledger\\txmgmt\\statedb\\statecouchdb.queryScanner
github.com\\hyperledger\\fabric\\core\\ledger.ValidatedLedger <|- github.com\\hyperledger\\fabric\\core\\ledger\\kvledger\\txmgmt\\statedb\\statecouchdb.TestVDBEnv
github.com\\hyperledger\\fabric\\core\\ledger.ValidatedLedger <|- github.com\\hyperledger\\fabric\\core\\ledger\\kvledger\\txmgmt\\statedb.CompositeKey
github.com\\hyperledger\\fabric\\core\\ledger.ValidatedLedger <|- github.com\\hyperledger\\fabric\\core\\ledger\\kvledger\\txmgmt\\statedb.VersionedValue
github.com\\hyperledger\\fabric\\core\\ledger.ValidatedLedger <|- github.com\\hyperledger\\fabric\\core\\ledger\\kvledger\\txmgmt\\statedb.VersionedKV
github.com\\hyperledger\\fabric\\core\\ledger.ValidatedLedger <|- github.com\\hyperledger\\fabric\\core\\ledger\\kvledger\\txmgmt\\statedb.nsUpdates
github.com\\hyperledger\\fabric\\core\\ledger.ValidatedLedger <|- github.com\\hyperledger\\fabric\\core\\ledger\\kvledger\\txmgmt\\statedb.UpdateBatch
github.com\\hyperledger\\fabric\\core\\ledger.ValidatedLedger <|- github.com\\hyperledger\\fabric\\core\\ledger\\kvledger\\txmgmt\\statedb.nsIterator
github.com\\hyperledger\\fabric\\core\\ledger.ValidatedLedger <|- github.com\\hyperledger\\fabric\\core\\ledger\\kvledger\\txmgmt\\statedb\\stateleveldb.VersionedDBProvider
github.com\\hyperledger\\fabric\\core\\ledger.ValidatedLedger <|- github.com\\hyperledger\\fabric\\core\\ledger\\kvledger\\txmgmt\\statedb\\stateleveldb.versionedDB
github.com\\hyperledger\\fabric\\core\\ledger.ValidatedLedger <|- github.com\\hyperledger\\fabric\\core\\ledger\\kvledger\\txmgmt\\statedb\\stateleveldb.kvScanner
github.com\\hyperledger\\fabric\\core\\ledger.ValidatedLedger <|- github.com\\hyperledger\\fabric\\core\\ledger\\kvledger\\txmgmt\\statedb\\stateleveldb.TestVDBEnv
github.com\\hyperledger\\fabric\\core\\ledger.ValidatedLedger <|- github.com\\hyperledger\\fabric\\core\\ledger\\kvledger\\txmgmt\\txmgr\\lockbasedtxmgr.queryHelper
github.com\\hyperledger\\fabric\\core\\ledger.ValidatedLedger <|- github.com\\hyperledger\\fabric\\core\\ledger\\kvledger\\txmgmt\\txmgr\\lockbasedtxmgr.resultsItr
github.com\\hyperledger\\fabric\\core\\ledger.ValidatedLedger <|- github.com\\hyperledger\\fabric\\core\\ledger\\kvledger\\txmgmt\\txmgr\\lockbasedtxmgr.queryResultsItr
github.com\\hyperledger\\fabric\\core\\ledger.ValidatedLedger <|- github.com\\hyperledger\\fabric\\core\\ledger\\kvledger\\txmgmt\\txmgr\\lockbasedtxmgr.lockBasedQueryExecutor
github.com\\hyperledger\\fabric\\core\\ledger.ValidatedLedger <|- github.com\\hyperledger\\fabric\\core\\ledger\\kvledger\\txmgmt\\txmgr\\lockbasedtxmgr.lockBasedTxSimulator
github.com\\hyperledger\\fabric\\core\\ledger.ValidatedLedger <|- github.com\\hyperledger\\fabric\\core\\ledger\\kvledger\\txmgmt\\txmgr\\lockbasedtxmgr.LockBasedTxMgr
github.com\\hyperledger\\fabric\\core\\ledger.ValidatedLedger <|- github.com\\hyperledger\\fabric\\core\\ledger\\kvledger\\txmgmt\\validator\\statebasedval.combinedIterator
github.com\\hyperledger\\fabric\\core\\ledger.ValidatedLedger <|- github.com\\hyperledger\\fabric\\core\\ledger\\kvledger\\txmgmt\\validator\\statebasedval.rangeQueryResultsValidator
github.com\\hyperledger\\fabric\\core\\ledger.ValidatedLedger <|- github.com\\hyperledger\\fabric\\core\\ledger\\kvledger\\txmgmt\\validator\\statebasedval.rangeQueryHashValidator
github.com\\hyperledger\\fabric\\core\\ledger.ValidatedLedger <|- github.com\\hyperledger\\fabric\\core\\ledger\\kvledger\\txmgmt\\validator\\statebasedval.Validator
github.com\\hyperledger\\fabric\\core\\ledger.ValidatedLedger <|- github.com\\hyperledger\\fabric\\core\\ledger\\kvledger\\txmgmt\\version.Height
github.com\\hyperledger\\fabric\\core\\ledger.ValidatedLedger <|- github.com\\hyperledger\\fabric\\core\\ledger\\ledgermgmt.closableLedger
github.com\\hyperledger\\fabric\\core\\ledger.ValidatedLedger <|- github.com\\hyperledger\\fabric\\core\\ledger\\testutil.TestRandomNumberGenerator
github.com\\hyperledger\\fabric\\core\\ledger.ValidatedLedger <|- github.com\\hyperledger\\fabric\\core\\ledger\\util\\couchdb.CouchDBDef
github.com\\hyperledger\\fabric\\core\\ledger.ValidatedLedger <|- github.com\\hyperledger\\fabric\\core\\ledger\\util\\couchdb.DBOperationResponse
github.com\\hyperledger\\fabric\\core\\ledger.ValidatedLedger <|- github.com\\hyperledger\\fabric\\core\\ledger\\util\\couchdb.DBInfo
github.com\\hyperledger\\fabric\\core\\ledger.ValidatedLedger <|- github.com\\hyperledger\\fabric\\core\\ledger\\util\\couchdb.ConnectionInfo
github.com\\hyperledger\\fabric\\core\\ledger.ValidatedLedger <|- github.com\\hyperledger\\fabric\\core\\ledger\\util\\couchdb.RangeQueryResponse
github.com\\hyperledger\\fabric\\core\\ledger.ValidatedLedger <|- github.com\\hyperledger\\fabric\\core\\ledger\\util\\couchdb.QueryResponse
github.com\\hyperledger\\fabric\\core\\ledger.ValidatedLedger <|- github.com\\hyperledger\\fabric\\core\\ledger\\util\\couchdb.Doc
github.com\\hyperledger\\fabric\\core\\ledger.ValidatedLedger <|- github.com\\hyperledger\\fabric\\core\\ledger\\util\\couchdb.DocID
github.com\\hyperledger\\fabric\\core\\ledger.ValidatedLedger <|- github.com\\hyperledger\\fabric\\core\\ledger\\util\\couchdb.QueryResult
github.com\\hyperledger\\fabric\\core\\ledger.ValidatedLedger <|- github.com\\hyperledger\\fabric\\core\\ledger\\util\\couchdb.CouchConnectionDef
github.com\\hyperledger\\fabric\\core\\ledger.ValidatedLedger <|- github.com\\hyperledger\\fabric\\core\\ledger\\util\\couchdb.CouchInstance
github.com\\hyperledger\\fabric\\core\\ledger.ValidatedLedger <|- github.com\\hyperledger\\fabric\\core\\ledger\\util\\couchdb.CouchDatabase
github.com\\hyperledger\\fabric\\core\\ledger.ValidatedLedger <|- github.com\\hyperledger\\fabric\\core\\ledger\\util\\couchdb.DBReturn
github.com\\hyperledger\\fabric\\core\\ledger.ValidatedLedger <|- github.com\\hyperledger\\fabric\\core\\ledger\\util\\couchdb.Attachment
github.com\\hyperledger\\fabric\\core\\ledger.ValidatedLedger <|- github.com\\hyperledger\\fabric\\core\\ledger\\util\\couchdb.DocMetadata
github.com\\hyperledger\\fabric\\core\\ledger.ValidatedLedger <|- github.com\\hyperledger\\fabric\\core\\ledger\\util\\couchdb.FileDetails
github.com\\hyperledger\\fabric\\core\\ledger.ValidatedLedger <|- github.com\\hyperledger\\fabric\\core\\ledger\\util\\couchdb.CouchDoc
github.com\\hyperledger\\fabric\\core\\ledger.ValidatedLedger <|- github.com\\hyperledger\\fabric\\core\\ledger\\util\\couchdb.BatchRetrieveDocMedatadataResponse
github.com\\hyperledger\\fabric\\core\\ledger.ValidatedLedger <|- github.com\\hyperledger\\fabric\\core\\ledger\\util\\couchdb.BatchUpdateResponse
github.com\\hyperledger\\fabric\\core\\ledger.ValidatedLedger <|- github.com\\hyperledger\\fabric\\core\\ledger\\util\\couchdb.Base64Attachment
github.com\\hyperledger\\fabric\\core\\ledger.QueryExecutor <|- github.com\\hyperledger\\fabric\\core\\ledger\\kvledger\\txmgmt\\txmgr\\lockbasedtxmgr.lockBasedQueryExecutor
github.com\\hyperledger\\fabric\\core\\ledger.HistoryQueryExecutor <|- github.com\\hyperledger\\fabric\\core\\ledger\\kvledger\\history\\historydb\\historyleveldb.LevelHistoryDBQueryExecutor
github.com\\hyperledger\\fabric\\core\\ledger.TxSimulator <|- github.com\\hyperledger\\fabric\\core\\ledger\\kvledger\\txmgmt\\txmgr\\lockbasedtxmgr.lockBasedTxSimulator
@enduml